{"accessors" : [{"bufferView" : 0, "byteOffset" : 0, "componentType" : 5123, "count" : 32286, "type" : "SCALAR", "max" : [25774], "min" : [0]}, {"bufferView" : 1, "byteOffset" : 0, "componentType" : 5126, "count" : 25775, "type" : "VEC3", "max" : [0.9134780168533325, 1.8497817516326904, 0.107880137860775], "min" : [-0.9134929180145264, 0.02937268279492855, -0.13070863485336304], "name" : "POSITION"}, {"bufferView" : 1, "byteOffset" : 12, "componentType" : 5126, "count" : 25775, "type" : "VEC3", "max" : [0.9994953274726868, 0.9998497366905212, 0.9998434782028198], "min" : [-0.9995754957199097, -1.0000039339065552, -0.9999226927757263], "name" : "NORMAL"}, {"bufferView" : 1, "byteOffset" : 24, "componentType" : 5126, "count" : 25775, "type" : "VEC2", "max" : [0.9768610000610352, 1.9964560270309448], "min" : [0.0035039999056607485, 1.020367980003357], "name" : "TEXCOORD_0"}, {"bufferView" : 0, "byteOffset" : 64572, "componentType" : 5123, "count" : 4074, "type" : "SCALAR", "max" : [3355], "min" : [0]}, {"bufferView" : 2, "byteOffset" : 0, "componentType" : 5126, "count" : 3356, "type" : "VEC3", "max" : [0.08740495890378952, 1.8698292970657349, 0.087687186896801], "min" : [-0.08869758248329163, 1.6279206275939941, -0.13945430517196655], "name" : "POSITION"}, {"bufferView" : 2, "byteOffset" : 12, "componentType" : 5126, "count" : 3356, "type" : "VEC3", "max" : [0.9980771541595459, 0.9993159174919128, 0.9992595314979553], "min" : [-0.9998698830604553, -0.8998908996582031, -0.9987596273422241], "name" : "NORMAL"}, {"bufferView" : 2, "byteOffset" : 24, "componentType" : 5126, "count" : 3356, "type" : "VEC2", "max" : [0.9255481958389282, 1.9991588592529297], "min" : [9.619116462999955E-05, 1.000096321105957], "name" : "TEXCOORD_0"}, {"bufferView" : 0, "byteOffset" : 72720, "componentType" : 5123, "count" : 18315, "type" : "SCALAR", "max" : [14980], "min" : [0]}, {"bufferView" : 3, "byteOffset" : 0, "componentType" : 5126, "count" : 14981, "type" : "VEC3", "max" : [0.7452026009559631, 1.6812832355499268, 0.1508709043264389], "min" : [-0.7523449063301086, 0.12601761519908905, -0.22938776016235352], "name" : "POSITION"}, {"bufferView" : 3, "byteOffset" : 12, "componentType" : 5126, "count" : 14981, "type" : "VEC3", "max" : [0.9999139904975891, 0.9996918439865112, 0.9999197721481323], "min" : [-0.9999798536300659, -0.9996504187583923, -0.9993299841880798], "name" : "NORMAL"}, {"bufferView" : 3, "byteOffset" : 24, "componentType" : 5126, "count" : 14981, "type" : "VEC2", "max" : [0.9956998825073242, 1.996100664138794], "min" : [0.0039061903953552246, 1.0757780075073242], "name" : "TEXCOORD_0"}, {"bufferView" : 0, "byteOffset" : 109352, "componentType" : 5123, "count" : 10140, "type" : "SCALAR", "max" : [9349], "min" : [0]}, {"bufferView" : 4, "byteOffset" : 0, "componentType" : 5126, "count" : 9350, "type" : "VEC3", "max" : [0.16172802448272705, 0.10961468517780304, 0.20261064171791077], "min" : [-0.1613173633813858, -0.00340489624068141, -0.0669059157371521], "name" : "POSITION"}, {"bufferView" : 4, "byteOffset" : 12, "componentType" : 5126, "count" : 9350, "type" : "VEC3", "max" : [0.9999182820320129, 1.0000044107437134, 0.9992735981941223], "min" : [-0.9997466802597046, -1.0000001192092896, -0.9965018033981323], "name" : "NORMAL"}, {"bufferView" : 4, "byteOffset" : 24, "componentType" : 5126, "count" : 9350, "type" : "VEC2", "max" : [0.9737202525138855, 1.9993900060653687], "min" : [0.005071103107184172, 1.001187801361084], "name" : "TEXCOORD_0"}], "asset" : {"generator" : "Aspose.3D 24.1.0", "version" : "2.0"}, "buffers" : [{"uri" : "data:application/octet-stream;base64,", "byteLength" : 2203732}], "bufferViews" : [{"buffer" : 0, "byteOffset" : 0, "byteLength" : 129632, "target" : 34963}, {"buffer" : 0, "byteOffset" : 129636, "byteLength" : 1033152, "byteStride" : 32, "target" : 34962}, {"buffer" : 0, "byteOffset" : 1162792, "byteLength" : 130368, "byteStride" : 32, "target" : 34962}, {"buffer" : 0, "byteOffset" : 1293164, "byteLength" : 586080, "byteStride" : 32, "target" : 34962}, {"buffer" : 0, "byteOffset" : 1879248, "byteLength" : 324480, "byteStride" : 32, "target" : 34962}], "materials" : [{"name" : "avaturn_body_material.002", "pbrMetallicRoughness" : {"baseColorFactor" : [1, 1, 1, 1], "metallicFactor" : 0, "roughnessFactor" : 0.5}, "emissiveFactor" : [0, 0, 0], "alphaMode" : "OPAQUE", "doubleSided" : true}, {"name" : "avaturn_hair_0_material.002", "pbrMetallicRoughness" : {"baseColorFactor" : [1, 1, 1, 1], "metallicFactor" : 0, "roughnessFactor" : 0.5}, "emissiveFactor" : [0, 0, 0], "alphaMode" : "OPAQUE", "doubleSided" : true}, {"name" : "avaturn_look_0_material.002", "pbrMetallicRoughness" : {"baseColorFactor" : [1, 1, 1, 1], "metallicFactor" : 0, "roughnessFactor" : 0.5}, "emissiveFactor" : [0, 0, 0], "alphaMode" : "OPAQUE", "doubleSided" : true}, {"name" : "avaturn_shoes_0_material.002", "pbrMetallicRoughness" : {"baseColorFactor" : [1, 1, 1, 1], "metallicFactor" : 0, "roughnessFactor" : 0.5}, "emissiveFactor" : [0, 0, 0], "alphaMode" : "OPAQUE", "doubleSided" : true}], "meshes" : [{"primitives" : [{"attributes" : {"POSITION" : 1, "NORMAL" : 2, "TEXCOORD_0" : 3}, "indices" : 0, "material" : 0, "mode" : 4}]}, {"primitives" : [{"attributes" : {"POSITION" : 5, "NORMAL" : 6, "TEXCOORD_0" : 7}, "indices" : 4, "material" : 1, "mode" : 4}]}, {"primitives" : [{"attributes" : {"POSITION" : 9, "NORMAL" : 10, "TEXCOORD_0" : 11}, "indices" : 8, "material" : 2, "mode" : 4}]}, {"primitives" : [{"attributes" : {"POSITION" : 13, "NORMAL" : 14, "TEXCOORD_0" : 15}, "indices" : 12, "material" : 3, "mode" : 4}]}], "nodes" : [{"mesh" : 0, "name" : "avaturn_body"}, {"mesh" : 1, "name" : "avaturn_hair_0"}, {"mesh" : 2, "name" : "avaturn_look_0"}, {"mesh" : 3, "name" : "avaturn_shoes_0"}, {"children" : [0, 1, 2, 3], "name" : "Armature"}], "scene" : 0, "scenes" : [{"nodes" : [4]}]}